<svg xmlns="http://www.w3.org/2000/svg" width="1240" height="1240"><path d="M265.052 142.649c-.594 2.118-16.087 51.326-34.43 109.351l-33.35 105.5 117.4 116.869c64.571 64.279 119.161 118.279 121.313 120 2.151 1.722 3.928 4.031 3.947 5.131.02 1.1-16.352 33.256-36.382 71.457l-36.417 69.457 3.3 4.543c1.814 2.499 55.179 78.793 118.588 169.543 63.409 90.75 118.858 170.069 123.219 176.265l7.929 11.266 2.553-3.766c1.405-2.071 58.268-83.47 126.363-180.888l123.808-177.123-36.136-68.877c-31.744-60.505-38.735-74.963-35.832-74.093.397.119 54.986-53.784 121.308-119.784l120.586-120-31.904-101c-17.548-55.55-33.051-104.727-34.452-109.283-1.509-4.907-2.965-8.025-3.572-7.65-.563.348-.776.881-.473 1.184.303.303-.051 1.046-.787 1.65-1.416 1.164-309.444 456.948-310.272 459.105-.342.893 74.866 104.638 87.843 121.173.614.783-20.721 55.098-63.577 161.855-35.477 88.372-64.755 160.929-65.064 161.238-.308.309-.784.339-1.056.066-.272-.272-29.53-72.824-65.017-161.226l-64.523-160.73 44.599-60.508c27.15-36.835 44.383-61.07 44.047-61.946-.841-2.192-308.662-457.783-310.075-458.928-.679-.55-1.265-1.375-1.302-1.833-.192-2.371-1.225-1.432-2.182 1.982" fill="undefined" fill-rule="evenodd"/></svg>