<svg xmlns="http://www.w3.org/2000/svg" version="1.2" viewBox="0 0 841.89 595.276" height="793.701" width="1122.52"><path d="M314.808 288.368L233.184 491.74v25.131l115.095-164.665zm0 0" fill="#f0b50a"/><path d="M394.02 78.405l-79.052 209.541-21.905 58.04-41.651-56.512zm0 0" fill="#ee970f"/><path d="M314.808 288.368L394.02 78.405l31.492 99.982zm0 0" fill="#f06e0f"/><path d="M151.55 288.368l81.634 203.372v25.131L118.088 352.206zm0 0" fill="#f0b50a"/><path d="M72.347 78.405L151.4 287.946l21.895 58.04 41.662-56.512zm0 0" fill="#ee970f"/><path d="M151.55 288.368L72.346 78.405l-31.492 99.982zm0 0" fill="#f06e0f"/><path d="M587.785 258.574l3.548-6.632h-5.216l-3.728 6.632zm0 0M604.124 247.933l3.558-6.943h-15.405l-3.909 6.943zm0 0M541.422 247.933v3.859l-5.758.02-3.809 6.772h9.567v3.035c.02.1 0 .201 0 .312v24.116h15.927v-27.463h8.099l6.923-6.642H557.35v-4.009h19.202l7.255-6.943h-42.053l-3.909 6.943zm0 0M493.5 240.99v6.943h32.527l7.245-6.943zm0 0M507.005 258.574h7.909l7.024-6.722-30.85.09v34.105h15.917zm0 0M587.785 326.633H559.48v-11.415h28.306zm-44.514-18.67h-28.156v-11.415h28.156zm0 18.67h-28.156v-11.415h28.156zm44.514-18.67H559.48v-11.425h24.317l3.99-7.255h-88.88v44.605h105.088v-44.605h-16.209zm0 0M608.254 251.792l-16.208.15v33.954h16.208zm0 0M780.747 323.086h16.218L791.7 303.18h-16.208zm0 0" fill="#f0b50a"/><path d="M728.565 291.604h-26.598v-21.755h26.598zm67.406 42.746l4.26-6.943h-37.109v-28.86h34.547v-35.642H781.46v28.699h-33.984v-21.755h29.865l4.12-6.944h-5.688l9.817-22.227h-87.03l-7.828 17.283h17.214l4.974-11.113v.462h52.473l-6.823 15.595h-72.812v35.642h37.12l-37.12 35.803h24.037l34.416-32.718v32.718zm0 0M502.735 355.693h-11.033v33.402h28.93l2.29-4.362h-20.187zm0 0M587.996 355.693l-12.67 33.402h11.686l2.894-7.959h11.676l3.216-4.592h-13.094l5.457-16.38h1.748l5.889 16.38 4.431 12.55h11.566l-12.722-33.4zm0 0M694.591 369.57l-9.003-13.937h-12.39l15.937 22.478v10.923h10.922v-10.802l15.606-22.599h-12.28zm0 0M781.872 384.673l16.761-19.042v-9.998h-30.286v10.631h10.792v-6.27h8.853v3.366l-19.926 22.137v3.537h30.567l2.402-4.36zm0 0" fill="#f0b50a"/><path d="M588.56 240.94l-.051.05h.03zm0 0" fill="#f06e0f"/><path d="M588.74 261.92l-11.948-.07 1.84-3.266 3.737-6.642 2.261-4.009 3.91-6.944h-.031l-7.245 6.944-4.18 4.01-6.934 6.641-9.435 9.034 12.33-.211-9.135 18.7zm0 0M538.035 240.94l-.05.05h.02zm0 0" fill="#f06e0f"/><path d="M538.206 261.92l-11.938-.07 1.84-3.266 3.798-6.762 2.19-3.889 3.91-6.944h-.02l-7.256 6.944-4.07 3.899-7.034 6.752-9.435 9.034 12.32-.211-9.125 18.7zm0 0" fill="#f06e0f"/></svg>