<svg xmlns="http://www.w3.org/2000/svg" width="997.349" height="477.577" viewBox="0 0 748.012 358.182" version="1.2"><path d="M233.364 43.19l8.56-16.005H229.34l-8.997 16.005zm0 0M272.796 17.509L281.38.752h-37.177l-9.433 16.757zm0 0M121.472 17.509v9.312l-13.896.049-9.191 16.345h23.087v7.323c.048.243 0 .485 0 .752v58.202h38.437V43.215h19.546l16.709-16.03h-36.255v-9.676h46.343L223.761.752h-101.49l-9.433 16.757zm0 0M5.82.752v16.757h78.5L101.804.752zm0 0M38.413 43.19h19.085L74.45 26.967 0 27.185v82.307h38.413zm0 0M233.364 207.44H165.05v-27.549h68.314zm-107.43-45.058h-67.95v-27.548h67.95zm0 45.058h-67.95v-27.549h67.95zm107.43-45.058H165.05V134.81h58.687l9.627-17.508H18.867v107.648h253.614V117.3h-39.117zm0 0M282.763 26.821l-39.116.364v81.943h39.116zm0 0M699.05 198.88h39.14l-12.707-48.04h-39.116zm0 0" fill="#f0b50a"/><path d="M573.116 122.902h-64.191V70.4h64.191zM735.79 226.065l10.282-16.757h-89.558V139.66h83.374V53.642h-39.116v69.26h-82.016V70.4h72.073l9.943-16.758h-13.726L710.739 0H500.704l-18.892 41.711h41.542l12.004-26.821v1.115h126.637l-16.466 37.637h-175.72v86.018h89.581l-89.582 86.405h58.008l83.058-78.96v78.96zm0 0M28.107 277.573H1.479v80.61h69.818l5.53-10.525h-48.72zm0 0M233.873 277.573l-30.58 80.61h28.204l6.984-19.207h28.18l7.76-11.083h-31.599l13.168-39.528h4.22l14.21 39.528 10.695 30.29h27.913l-30.702-80.61zm0 0M491.125 311.063l-21.729-33.635h-29.901l38.462 54.248v26.36h26.36v-26.069l37.661-54.54h-29.634zm0 0M701.766 347.512l40.45-45.955v-24.13h-73.091v25.658h26.045v-15.133h21.365v8.124l-48.09 53.425v8.536h73.771l5.796-10.525zm0 0" fill="#f0b50a"/><path d="M235.232.63l-.122.122h.073zm0 0M235.668 51.266l-28.834-.17 4.438-7.881 9.021-16.03 5.457-9.676L235.183.752h-.073l-17.484 16.757-10.089 9.676-16.733 16.03-22.77 21.8 29.755-.508-22.044 45.13zm0 0M113.3.63l-.122.122h.048zm0 0M113.711 51.266l-28.81-.17 4.439-7.881 9.166-16.321 5.287-9.385L113.226.752h-.048l-17.51 16.757-9.82 9.41-16.976 16.296-22.771 21.8 29.73-.508-22.019 45.13zm0 0" fill="#f06e0f"/></svg>